<svg xmlns="http://www.w3.org/2000/svg" xmlns:ev="http://www.w3.org/2001/xml-events" xmlns:xlink="http://www.w3.org/1999/xlink" width="192" height="64" baseProfile="full" version="1.1"><defs><marker id="arrow" markerHeight="3.5" markerWidth="5" orient="auto" refX="5" refY="1.7"><polygon points="0 0 5 1.75 0 3.5"/></marker></defs><g style="fill:#fff"><g><g><g><g><g><g><g><g><g><g><g><g><g style="fill:#005fdb;stroke:#000;stroke-width:.576"><path d="M 0.0 0.0 A 1.0 1.0 0.0 0 0 -1.0 -1.0 A 1.0 1.0 -90.0 0 0 -2.0 0.0 A 1.0 1.0 180.0 0 0 -1.0 1.0 A 1.0 1.0 90.0 0 0 0.0 0.0 Z" style="vector-effect:non-scaling-stroke" transform="matrix(1.0, 0.0, 0.0, 1.0, 96.0, 32.0) matrix(60.95238095238095, 0.0, 0.0, 60.95238095238095, 0.0, 0.0) matrix(1.0, 0.0, 0.0, 1.0, -1.4, -0.0) matrix(0.1, 0.0, 0.0, 0.1, 0.1, 0.0)"/></g></g><g style="fill:#005fdb;stroke:#000;stroke-width:.576"><path d="M 0.0 0.0 A 1.0 1.0 0.0 0 0 -1.0 -1.0 A 1.0 1.0 -90.0 0 0 -2.0 0.0 A 1.0 1.0 180.0 0 0 -1.0 1.0 A 1.0 1.0 90.0 0 0 0.0 0.0 Z" style="vector-effect:non-scaling-stroke" transform="matrix(1.0, 0.0, 0.0, 1.0, 96.0, 32.0) matrix(60.95238095238095, 0.0, 0.0, 60.95238095238095, 0.0, 0.0) matrix(1.0, 0.0, 0.0, 1.0, -1.4, -0.0) matrix(0.2, 0.0, 0.0, 0.2, 0.5, 0.0)"/></g></g></g><g style="fill:#005fdb;stroke:#000;stroke-width:.576"><path d="M 0.0 0.0 A 1.0 1.0 0.0 0 0 -1.0 -1.0 A 1.0 1.0 -90.0 0 0 -2.0 0.0 A 1.0 1.0 180.0 0 0 -1.0 1.0 A 1.0 1.0 90.0 0 0 0.0 0.0 Z" style="vector-effect:non-scaling-stroke" transform="matrix(1.0, 0.0, 0.0, 1.0, 96.0, 32.0) matrix(60.95238095238095, 0.0, 0.0, 60.95238095238095, 0.0, 0.0) matrix(1.0, 0.0, 0.0, 1.0, -1.4, -0.0) matrix(0.30000000000000004, 0.0, 0.0, 0.30000000000000004, 1.1, 0.0)"/></g></g></g><g style="fill:#005fdb;stroke:#000;stroke-width:.576"><path d="M 0.0 0.0 A 1.0 1.0 0.0 0 0 -1.0 -1.0 A 1.0 1.0 -90.0 0 0 -2.0 0.0 A 1.0 1.0 180.0 0 0 -1.0 1.0 A 1.0 1.0 90.0 0 0 0.0 0.0 Z" style="vector-effect:non-scaling-stroke" transform="matrix(1.0, 0.0, 0.0, 1.0, 96.0, 32.0) matrix(60.95238095238095, 0.0, 0.0, 60.95238095238095, 0.0, 0.0) matrix(1.0, 0.0, 0.0, 1.0, -1.4, -0.0) matrix(0.4, 0.0, 0.0, 0.4, 1.9, 0.0)"/></g></g></g><g style="fill:#005fdb;stroke:#000;stroke-width:.576"><path d="M 0.0 0.0 A 1.0 1.0 0.0 0 0 -1.0 -1.0 A 1.0 1.0 -90.0 0 0 -2.0 0.0 A 1.0 1.0 180.0 0 0 -1.0 1.0 A 1.0 1.0 90.0 0 0 0.0 0.0 Z" style="vector-effect:non-scaling-stroke" transform="matrix(1.0, 0.0, 0.0, 1.0, 96.0, 32.0) matrix(60.95238095238095, 0.0, 0.0, 60.95238095238095, 0.0, 0.0) matrix(1.0, 0.0, 0.0, 1.0, -1.4, -0.0) matrix(0.5, 0.0, 0.0, 0.5, 2.9, 0.0)"/></g></g></g></g></g></g></g></svg>